<svg xmlns="http://www.w3.org/2000/svg" viewBox="0 0 520 128" role="img" aria-labelledby="title desc"><title id="title">Sete Lírios</title><desc id="desc">Símbolo floral e nome Sete Lírios</desc><g fill="none" stroke="#c9ff32" stroke-width="6" stroke-linecap="round" stroke-linejoin="round"><path d="M66 66C42 48 39 25 49 13c17 5 28 22 17 53Z"/><path d="M66 66C65 37 78 19 94 17c9 16 5 37-28 49Z"/><path d="M66 66C88 46 110 45 120 57c-7 17-25 26-54 9Z"/><path d="M66 66c26 4 42 19 41 35-18 7-37 0-41-35Z"/><path d="M66 66c8 27-1 47-16 53-13-13-14-34 16-53Z"/><path d="M66 66c-22 20-44 20-54 7 8-17 27-24 54-7Z"/><path d="M66 66C49 87 49 106 59 116"/></g><g fill="#f7f4e8"><text x="150" y="67" font-family="Arial,Helvetica,sans-serif" font-size="47" font-weight="800" letter-spacing="2">SETE LÍRIOS</text><text x="153" y="94" font-family="Arial,Helvetica,sans-serif" font-size="12" font-weight="700" letter-spacing="4">FARMÁCIA DE MANIPULAÇÃO</text></g></svg>
